<mxfile host="app.diagrams.net" modified="2023-06-08T16:43:41.443Z" agent="Mozilla/5.0 (Windows NT 10.0; Win64; x64) AppleWebKit/537.36 (KHTML, like Gecko) Chrome/114.0.0.0 Safari/537.36" version="21.3.7" etag="9_M0I_kgKjq6gHMACkpH" type="github">
  <diagram name="Страница 1" id="4OlOha9DevYsL2qgx4xG">
    <mxGraphModel>
      <root>
        <mxCell id="0" />
        <mxCell id="1" parent="0" />
      </root>
    </mxGraphModel>
  </diagram>
</mxfile>
